<?xml version="1.0" standalone="no"?><svg xmlns="http://www.w3.org/2000/svg" viewBox="0 0 1440 320"><path fill="#33b5e5" fill-opacity="1" d="M0,256L0,64L45,64L45,288L90,288L90,256L135,256L135,192L180,192L180,192L225,192L225,160L270,160L270,96L315,96L315,224L360,224L360,224L405,224L405,288L450,288L450,192L495,192L495,0L540,0L540,288L585,288L585,64L630,64L630,32L675,32L675,96L720,96L720,288L765,288L765,0L810,0L810,64L855,64L855,96L900,96L900,192L945,192L945,32L990,32L990,128L1035,128L1035,160L1080,160L1080,160L1125,160L1125,0L1170,0L1170,288L1215,288L1215,256L1260,256L1260,288L1305,288L1305,256L1350,256L1350,320L1395,320L1395,256L1440,256L1440,320L1395,320L1395,320L1350,320L1350,320L1305,320L1305,320L1260,320L1260,320L1215,320L1215,320L1170,320L1170,320L1125,320L1125,320L1080,320L1080,320L1035,320L1035,320L990,320L990,320L945,320L945,320L900,320L900,320L855,320L855,320L810,320L810,320L765,320L765,320L720,320L720,320L675,320L675,320L630,320L630,320L585,320L585,320L540,320L540,320L495,320L495,320L450,320L450,320L405,320L405,320L360,320L360,320L315,320L315,320L270,320L270,320L225,320L225,320L180,320L180,320L135,320L135,320L90,320L90,320L45,320L45,320L0,320L0,320Z"></path></svg>