<?xml version="1.0" standalone="no"?><svg xmlns="http://www.w3.org/2000/svg" viewBox="0 0 1440 320"><path fill="#33b5e5" fill-opacity="1" d="M0,192L16,197.3C32,203,64,213,96,218.7C128,224,160,224,192,186.7C224,149,256,75,288,53.3C320,32,352,64,384,74.7C416,85,448,75,480,90.7C512,107,544,149,576,165.3C608,181,640,171,672,192C704,213,736,267,768,293.3C800,320,832,320,864,314.7C896,309,928,299,960,250.7C992,203,1024,117,1056,80C1088,43,1120,53,1152,74.7C1184,96,1216,128,1248,154.7C1280,181,1312,203,1344,197.3C1376,192,1408,160,1424,144L1440,128L1440,0L1424,0C1408,0,1376,0,1344,0C1312,0,1280,0,1248,0C1216,0,1184,0,1152,0C1120,0,1088,0,1056,0C1024,0,992,0,960,0C928,0,896,0,864,0C832,0,800,0,768,0C736,0,704,0,672,0C640,0,608,0,576,0C544,0,512,0,480,0C448,0,416,0,384,0C352,0,320,0,288,0C256,0,224,0,192,0C160,0,128,0,96,0C64,0,32,0,16,0L0,0Z"></path></svg>